<svg width="72" height="72" viewBox="0 0 72 72" fill="none" xmlns="http://www.w3.org/2000/svg">
<rect width="72" height="72" rx="6" fill="#EDD8FF" fill-opacity="0.5"/>
<path d="M41.3333 38.6667H30.6667C30.313 38.6667 29.9739 38.8071 29.7239 39.0572C29.4738 39.3072 29.3333 39.6464 29.3333 40C29.3333 40.3536 29.4738 40.6928 29.7239 40.9428C29.9739 41.1928 30.313 41.3333 30.6667 41.3333H41.3333C41.687 41.3333 42.0261 41.1928 42.2761 40.9428C42.5262 40.6928 42.6667 40.3536 42.6667 40C42.6667 39.6464 42.5262 39.3072 42.2761 39.0572C42.0261 38.8071 41.687 38.6667 41.3333 38.6667ZM41.3333 33.3333H33.3333C32.9797 33.3333 32.6406 33.4738 32.3905 33.7238C32.1405 33.9739 32 34.313 32 34.6667C32 35.0203 32.1405 35.3594 32.3905 35.6095C32.6406 35.8595 32.9797 36 33.3333 36H41.3333C41.687 36 42.0261 35.8595 42.2761 35.6095C42.5262 35.3594 42.6667 35.0203 42.6667 34.6667C42.6667 34.313 42.5262 33.9739 42.2761 33.7238C42.0261 33.4738 41.687 33.3333 41.3333 33.3333ZM46.6667 25.3333H42.6667V24C42.6667 23.6464 42.5262 23.3072 42.2761 23.0572C42.0261 22.8071 41.687 22.6667 41.3333 22.6667C40.9797 22.6667 40.6406 22.8071 40.3905 23.0572C40.1405 23.3072 40 23.6464 40 24V25.3333H37.3333V24C37.3333 23.6464 37.1929 23.3072 36.9428 23.0572C36.6928 22.8071 36.3536 22.6667 36 22.6667C35.6464 22.6667 35.3072 22.8071 35.0572 23.0572C34.8071 23.3072 34.6667 23.6464 34.6667 24V25.3333H32V24C32 23.6464 31.8595 23.3072 31.6095 23.0572C31.3594 22.8071 31.0203 22.6667 30.6667 22.6667C30.313 22.6667 29.9739 22.8071 29.7239 23.0572C29.4738 23.3072 29.3333 23.6464 29.3333 24V25.3333H25.3333C24.9797 25.3333 24.6406 25.4738 24.3905 25.7238C24.1405 25.9739 24 26.313 24 26.6667V45.3333C24 46.3942 24.4214 47.4116 25.1716 48.1618C25.9217 48.9119 26.9391 49.3333 28 49.3333H44C45.0609 49.3333 46.0783 48.9119 46.8284 48.1618C47.5786 47.4116 48 46.3942 48 45.3333V26.6667C48 26.313 47.8595 25.9739 47.6095 25.7238C47.3594 25.4738 47.0203 25.3333 46.6667 25.3333ZM45.3333 45.3333C45.3333 45.6869 45.1929 46.0261 44.9428 46.2761C44.6928 46.5262 44.3536 46.6667 44 46.6667H28C27.6464 46.6667 27.3072 46.5262 27.0572 46.2761C26.8071 46.0261 26.6667 45.6869 26.6667 45.3333V28H29.3333V29.3333C29.3333 29.6869 29.4738 30.0261 29.7239 30.2761C29.9739 30.5262 30.313 30.6667 30.6667 30.6667C31.0203 30.6667 31.3594 30.5262 31.6095 30.2761C31.8595 30.0261 32 29.6869 32 29.3333V28H34.6667V29.3333C34.6667 29.6869 34.8071 30.0261 35.0572 30.2761C35.3072 30.5262 35.6464 30.6667 36 30.6667C36.3536 30.6667 36.6928 30.5262 36.9428 30.2761C37.1929 30.0261 37.3333 29.6869 37.3333 29.3333V28H40V29.3333C40 29.6869 40.1405 30.0261 40.3905 30.2761C40.6406 30.5262 40.9797 30.6667 41.3333 30.6667C41.687 30.6667 42.0261 30.5262 42.2761 30.2761C42.5262 30.0261 42.6667 29.6869 42.6667 29.3333V28H45.3333V45.3333Z" fill="#A53DFF"/>
</svg>
