<svg width="56" height="47" viewBox="0 0 56 47" fill="none" xmlns="http://www.w3.org/2000/svg">
<g filter="url(#filter0_d_0_3438)">
<path fill-rule="evenodd" clip-rule="evenodd" d="M23.5 0C21.0147 0 19 2.01472 19 4.5V6H8.5C6.01472 6 4 8.01472 4 10.5V14.652L26.842 20.742C27.6008 20.9441 28.3992 20.9441 29.158 20.742L52 14.652V10.5C52 8.01472 49.9853 6 47.5 6H37V4.5C37 2.01472 34.9853 0 32.5 0H23.5ZM23.5 3H32.5C33.3284 3 34 3.67157 34 4.5V6H22V4.5C22 3.67157 22.6716 3 23.5 3ZM8.5 39C6.01472 39 4 36.9853 4 34.5V17.55L27.613 23.841C27.8666 23.9088 28.1334 23.9088 28.387 23.841L52 17.55V34.5C52 36.9853 49.9853 39 47.5 39H8.5Z" fill="white"/>
</g>
<defs>
<filter id="filter0_d_0_3438" x="0" y="0" width="56" height="47" filterUnits="userSpaceOnUse" color-interpolation-filters="sRGB">
<feFlood flood-opacity="0" result="BackgroundImageFix"/>
<feColorMatrix in="SourceAlpha" type="matrix" values="0 0 0 0 0 0 0 0 0 0 0 0 0 0 0 0 0 0 127 0" result="hardAlpha"/>
<feOffset dy="4"/>
<feGaussianBlur stdDeviation="2"/>
<feComposite in2="hardAlpha" operator="out"/>
<feColorMatrix type="matrix" values="0 0 0 0 0 0 0 0 0 0 0 0 0 0 0 0 0 0 0.25 0"/>
<feBlend mode="normal" in2="BackgroundImageFix" result="effect1_dropShadow_0_3438"/>
<feBlend mode="normal" in="SourceGraphic" in2="effect1_dropShadow_0_3438" result="shape"/>
</filter>
</defs>
</svg>
