<svg width="290" height="250" viewBox="0 0 290 250" fill="none" xmlns="http://www.w3.org/2000/svg">
<g filter="url(#filter0_d_0_3484)">
<path fill-rule="evenodd" clip-rule="evenodd" d="M207.057 13.3681C196.724 3.30359 182.353 -1.47454 168.053 0.40008C154.128 2.36018 141.759 10.3158 134.197 22.1741C129.881 28.8233 127.251 36.4257 126.536 44.3216L128.448 42.4062C110.753 40.8758 92.9499 43.6597 76.5657 50.5196C62.8066 57.0976 53.0869 69.9362 50.487 84.9666C49.1312 92.9438 50.823 101.139 55.2267 107.927L56.4998 104.801C34.8967 110.285 16.9549 125.289 7.73268 145.585C3.60208 155.88 2.8784 167.229 5.6678 177.966C8.3903 187.83 14.7034 196.319 23.3659 201.763C32.5991 207.849 44.0684 209.488 54.636 206.233L51.7064 204.57C58.0301 223.283 74.2022 236.949 93.7043 240.059C115.703 244.425 138.529 241.377 158.612 231.392C170.622 225.742 181.53 217.997 190.824 208.522L189.083 209.244C201.301 209.999 213.553 208.488 225.221 204.787C236.013 201.566 246.253 196.725 255.591 190.428C264.236 184.732 271.479 177.152 276.777 168.256C281.588 159.878 283.703 150.22 282.833 140.597C282.132 129.941 276.893 120.097 268.445 113.565V117.944C280.324 108.88 286.878 94.47 285.905 79.5577C284.765 68.0891 279.09 57.5519 270.143 50.2898C261.195 43.0277 249.718 39.6429 238.263 40.8884L240.053 45.2131C248.119 37.4795 250.322 25.4461 245.519 15.3558C240.475 5.54316 229.403 0.420857 218.661 2.92985C212.742 4.10066 207.463 7.41674 203.837 12.2418C203.178 13.3894 203.562 14.8538 204.699 15.5305C205.849 16.1668 207.295 15.7876 207.985 14.6692C213.631 8.04919 222.776 5.60249 230.972 8.51943C239.246 11.7486 244.181 20.2801 242.855 29.0647C242.371 33.9033 240.094 38.3855 236.472 41.6292C235.771 42.3617 235.57 43.439 235.957 44.3755C236.345 45.3121 237.249 45.9312 238.262 45.9539C251.545 44.4453 264.685 49.7825 273.156 60.1267C281.231 70.4194 283.294 84.2042 278.584 96.4107C276.171 103.275 271.747 109.253 265.887 113.565C265.218 113.969 264.77 114.656 264.67 115.432C264.57 116.207 264.83 116.986 265.375 117.546C279.396 130.011 282.216 150.85 272.01 166.594C266.645 175.242 259.335 182.518 250.664 187.844C241.131 193.916 230.713 198.47 219.783 201.342C213.876 202.957 207.826 203.991 201.718 204.432C198.756 204.624 195.782 204.606 192.817 204.51C191.365 204.279 189.889 204.243 188.427 204.402C187.145 205.08 186.034 206.04 185.175 207.208C177.481 214.662 168.712 220.917 159.161 225.766C140.985 235.454 120.238 239.224 99.8171 236.548C82.2614 234.923 66.6744 224.642 58.2666 209.142C57.4457 207.254 56.7872 205.299 56.298 203.299C55.938 202.039 54.6344 201.299 53.3678 201.637C35.6129 206.615 17.0343 197 10.8411 179.628C7.56271 169.971 7.5733 159.5 10.8713 149.849C14.1392 140.22 19.9578 131.658 27.707 125.075C36.4407 117.651 46.6353 112.144 57.6313 108.909C58.2645 108.726 58.7789 108.263 59.0271 107.652C59.2754 107.041 59.2301 106.35 58.9043 105.777C52.134 94.0813 53.1283 79.4478 61.4184 68.776C70.8794 56.6161 84.9806 48.9521 100.328 47.6284C109.645 46.353 119.054 45.8854 128.45 46.231C129.496 46.2094 130.339 45.3676 130.363 44.3216C131.669 31.4409 138.373 19.7176 148.811 12.0611C159.444 4.48846 172.837 1.89601 185.527 4.95366C192.903 6.61641 199.784 9.9944 205.611 14.8137C206.016 15.1738 206.631 15.1557 207.015 14.7724C207.398 14.3891 207.416 13.7734 207.056 13.3681H207.057Z" fill="#E7C4B2"/>
</g>
<defs>
<filter id="filter0_d_0_3484" x="0" y="0" width="290" height="250" filterUnits="userSpaceOnUse" color-interpolation-filters="sRGB">
<feFlood flood-opacity="0" result="BackgroundImageFix"/>
<feColorMatrix in="SourceAlpha" type="matrix" values="0 0 0 0 0 0 0 0 0 0 0 0 0 0 0 0 0 0 127 0" result="hardAlpha"/>
<feOffset dy="4"/>
<feGaussianBlur stdDeviation="2"/>
<feComposite in2="hardAlpha" operator="out"/>
<feColorMatrix type="matrix" values="0 0 0 0 0 0 0 0 0 0 0 0 0 0 0 0 0 0 0.25 0"/>
<feBlend mode="normal" in2="BackgroundImageFix" result="effect1_dropShadow_0_3484"/>
<feBlend mode="normal" in="SourceGraphic" in2="effect1_dropShadow_0_3484" result="shape"/>
</filter>
</defs>
</svg>
