<svg width="100" height="18" viewBox="0 0 100 18" fill="none" xmlns="http://www.w3.org/2000/svg">
<path d="M9.94043 0L13.0563 4.7114L18.4999 6.21885L14.982 10.6381L15.2305 16.2812L9.94043 14.301L4.65036 16.2812L4.89888 10.6381L1.38092 6.21885L6.82458 4.7114L9.94043 0Z" fill="#E60000"/>
<path d="M29.9404 0L33.0563 4.7114L38.4999 6.21885L34.982 10.6381L35.2305 16.2812L29.9404 14.301L24.6504 16.2812L24.8989 10.6381L21.3809 6.21885L26.8246 4.7114L29.9404 0Z" fill="#E60000"/>
<path d="M49.9404 0L53.0563 4.7114L58.4999 6.21885L54.982 10.6381L55.2305 16.2812L49.9404 14.301L44.6504 16.2812L44.8989 10.6381L41.3809 6.21885L46.8246 4.7114L49.9404 0Z" fill="#E60000"/>
<path d="M69.9404 0L73.0563 4.7114L78.4999 6.21885L74.982 10.6381L75.2305 16.2812L69.9404 14.301L64.6504 16.2812L64.8989 10.6381L61.3809 6.21885L66.8246 4.7114L69.9404 0Z" fill="#E60000"/>
<path d="M84.2099 16.2812L89.4999 14.301V0L86.3841 4.7114L80.9404 6.21885L84.4584 10.6381L84.2099 16.2812Z" fill="#E60000"/>
<path d="M93.1402 4.63004L89.5 0V14.054L95.6803 16L95.39 10.4544L99.5 6.11146L93.1402 4.63004Z" fill="#999999"/>
</svg>
